# xmcd
#
# Track frame offsets: 
#        150
#        15487
#        32237
#        46522
#        63220
#        75045
#        90837
#        107362
#        123220
#        141732
#
# Disc length: 2065 seconds
#
# Revision: 1
# Processed by: cddbd v1.5.2PL0 Copyright (c) Steve Scherf et al.
# Submitted via: ExactAudioCopyFreeDBPlugin 1.0
#
DISCID=65080f0a
DTITLE=Various Artist - Hot Country Hits Of The 90's V.5
DYEAR=2000
DGENRE=Country
TTITLE0=Sammy Kershaw - Third Rate Romance
TTITLE1=Diamond Rio - Love A Little Stronger
TTITLE2=Suzy Bogguss - Drive South
TTITLE3=Ricky Van Shelton - Backroads
TTITLE4=Martina McBride - My Baby Loves Me
TTITLE5=Tanya Tucker - Down To My Last Teardrop
TTITLE6=Steve Wariner - The Tips Of My Fingers
TTITLE7=Radney Foster - Nobody Wins
TTITLE8=Keith Whitley - It Ain't Nothin
TTITLE9=Lorrie Morgan - Except Fo Monday
EXTD=
EXTT0=
EXTT1=
EXTT2=
EXTT3=
EXTT4=
EXTT5=
EXTT6=
EXTT7=
EXTT8=
EXTT9=
PLAYORDER=
